<svg width="36" height="29" viewBox="0 0 36 29" fill="none" xmlns="http://www.w3.org/2000/svg">
<path d="M31.8961 7.19577C31.9187 7.51156 31.9187 7.82741 31.9187 8.1432C31.9187 17.7751 24.5876 28.8734 11.1885 28.8734C7.06044 28.8734 3.22572 27.6778 0 25.6026C0.586513 25.6703 1.15039 25.6928 1.75947 25.6928C5.16558 25.6928 8.3011 24.5424 10.805 22.5799C7.60182 22.5122 4.91749 20.4144 3.99262 17.5271C4.4438 17.5947 4.89492 17.6398 5.36867 17.6398C6.02281 17.6398 6.67702 17.5496 7.28603 17.3917C3.94756 16.715 1.44361 13.7825 1.44361 10.241V10.1508C2.41354 10.6922 3.5415 11.0306 4.73696 11.0756C2.77446 9.76727 1.48874 7.53412 1.48874 5.00768C1.48874 3.65427 1.84959 2.41361 2.48124 1.33085C6.06788 5.75209 11.4591 8.63938 17.5044 8.95524C17.3917 8.41386 17.324 7.84998 17.324 7.28603C17.324 3.27078 20.5722 0 24.61 0C26.7078 0 28.6026 0.879735 29.9335 2.30085C31.5802 1.98506 33.1592 1.37598 34.5578 0.54138C34.0163 2.23322 32.866 3.65433 31.3546 4.55657C32.8209 4.39874 34.242 3.99262 35.5503 3.42874C34.5579 4.87235 33.3172 6.15807 31.8961 7.19577Z" fill="#CCD5AE"/>
</svg>
