<svg width="38" height="27" viewBox="0 0 38 27" fill="none" xmlns="http://www.w3.org/2000/svg">
<path d="M37.0566 4.1638C36.6214 2.52484 35.3389 1.23404 33.7105 0.795989C30.759 0 18.9238 0 18.9238 0C18.9238 0 7.08857 0 4.13698 0.795989C2.50862 1.23411 1.22614 2.52484 0.79086 4.1638C0 7.13451 0 13.3326 0 13.3326C0 13.3326 0 19.5308 0.79086 22.5015C1.22614 24.1404 2.50862 25.3775 4.13698 25.8155C7.08857 26.6115 18.9238 26.6115 18.9238 26.6115C18.9238 26.6115 30.7589 26.6115 33.7105 25.8155C35.3389 25.3775 36.6214 24.1404 37.0566 22.5015C37.8475 19.5308 37.8475 13.3326 37.8475 13.3326C37.8475 13.3326 37.8475 7.13451 37.0566 4.1638ZM15.053 18.9601V7.70521L24.9449 13.3328L15.053 18.9601Z" fill="#CCD5AE"/>
</svg>
